<?xml version="1.0" encoding="utf-8"?>
<!-- Generator: Adobe Illustrator 16.0.0, SVG Export Plug-In . SVG Version: 6.00 Build 0)  -->
<!DOCTYPE svg PUBLIC "-//W3C//DTD SVG 1.1//EN" "http://www.w3.org/Graphics/SVG/1.1/DTD/svg11.dtd">
<svg version="1.1" id="Capa_1" xmlns="http://www.w3.org/2000/svg" xmlns:xlink="http://www.w3.org/1999/xlink" x="0px" y="0px"
	 width="111.488px" height="111.488px" viewBox="0 0 111.488 111.488" enable-background="new 0 0 111.488 111.488"
	 xml:space="preserve">
<polygon opacity="0.9" enable-background="new    " points="111.488,71.583 111.488,111.488 0,0 39.905,0 "/>
<g enable-background="new    ">
	<path fill="#FFFFFF" d="M52.992,23.938l2.287,2.287l-1.168,11.473l4.86-4.86c0.518-0.519,0.783-0.899,0.796-1.144
		c0.021-0.327-0.135-0.657-0.466-0.988l-0.293-0.293l0.23-0.229l2.934,2.934l-0.23,0.229l-0.298-0.298
		c-0.356-0.356-0.718-0.501-1.081-0.435c-0.225,0.041-0.572,0.298-1.045,0.771l-7.103,7.103l-0.224-0.223l1.23-12.343l-5.189,5.188
		c-0.518,0.519-0.785,0.898-0.802,1.139c-0.017,0.33,0.139,0.66,0.466,0.987l0.298,0.298l-0.23,0.23l-2.934-2.934l0.23-0.23
		l0.292,0.293c0.36,0.36,0.723,0.508,1.087,0.441c0.224-0.041,0.572-0.299,1.044-0.771l5.86-5.859
		c0.041-0.531,0.044-0.904,0.009-1.122s-0.136-0.488-0.301-0.812c-0.083-0.156-0.247-0.358-0.491-0.603L52.992,23.938z"/>
	<path fill="#FFFFFF" d="M65.006,41.421l-3.449,3.449c-0.659,0.658-1.047,1.077-1.163,1.255c-0.116,0.179-0.168,0.33-0.157,0.456
		c0.01,0.127,0.061,0.235,0.152,0.326c0.128,0.129,0.309,0.238,0.54,0.33l-0.131,0.305l-2.405-1l-0.279-0.28l1.205-1.206
		c-1.019,0.042-1.725,0.002-2.119-0.117c-0.393-0.121-0.732-0.324-1.019-0.609c-0.319-0.319-0.502-0.688-0.553-1.106
		c-0.05-0.418,0.025-0.818,0.224-1.2c0.199-0.381,0.563-0.836,1.094-1.367l2.541-2.541c0.27-0.27,0.428-0.484,0.473-0.646
		s0.039-0.328-0.019-0.497c-0.058-0.171-0.238-0.402-0.541-0.696l0.229-0.23l1.996,1.996l-3.811,3.809
		c-0.529,0.531-0.785,0.971-0.768,1.32c0.02,0.352,0.159,0.656,0.42,0.918c0.178,0.178,0.436,0.324,0.773,0.438
		c0.338,0.114,0.819,0.169,1.445,0.165l3.226-3.226c0.323-0.323,0.482-0.601,0.479-0.834c-0.006-0.23-0.189-0.537-0.555-0.918
		l0.23-0.23L65.006,41.421z"/>
	<path fill="#FFFFFF" d="M65.191,45.895c-0.85,0.84-1.307,1.708-1.373,2.604c-0.066,0.895,0.18,1.621,0.74,2.182
		c0.373,0.373,0.8,0.594,1.279,0.665c0.481,0.069,1.063-0.05,1.746-0.36l0.068,0.316c-0.654,0.48-1.424,0.744-2.309,0.793
		c-0.884,0.047-1.642-0.244-2.271-0.873c-0.684-0.685-1.002-1.535-0.957-2.555s0.518-1.979,1.417-2.878
		c0.974-0.974,1.982-1.482,3.026-1.528c1.045-0.045,1.943,0.309,2.697,1.063c0.639,0.638,0.951,1.373,0.941,2.203
		s-0.367,1.598-1.072,2.303L65.191,45.895z M65.552,45.534l2.635,2.635c0.344-0.385,0.557-0.686,0.641-0.9
		c0.128-0.336,0.156-0.672,0.084-1.01c-0.073-0.338-0.221-0.619-0.445-0.842c-0.344-0.345-0.785-0.52-1.324-0.522
		C66.605,44.889,66.074,45.103,65.552,45.534z"/>
	<path fill="#FFFFFF" d="M71.736,48.151l2.678,2.678l-0.229,0.23l-0.175-0.174c-0.161-0.162-0.323-0.246-0.487-0.252
		c-0.163-0.006-0.312,0.057-0.444,0.189c-0.145,0.145-0.273,0.36-0.385,0.646l-1.821,4.468l4.593-1.933
		c0.327-0.137,0.551-0.266,0.672-0.385c0.057-0.059,0.088-0.123,0.092-0.193c0.018-0.107,0.002-0.207-0.045-0.301
		c-0.049-0.094-0.18-0.248-0.396-0.463l0.229-0.23l1.858,1.858l-0.229,0.229c-0.232-0.198-0.426-0.305-0.578-0.316
		c-0.27-0.021-0.607,0.056-1.014,0.23l-6.904,2.864l-0.254-0.255l2.771-6.836c0.133-0.314,0.205-0.563,0.22-0.742
		c0.015-0.181-0.009-0.368-0.071-0.563c-0.033-0.107-0.137-0.282-0.311-0.522L71.736,48.151z"/>
	<path fill="#FFFFFF" d="M81.344,57.423c0.862,0.862,1.227,1.881,1.094,3.059c-0.115,1.002-0.536,1.866-1.262,2.592
		c-0.509,0.509-1.147,0.902-1.914,1.18c-0.766,0.277-1.496,0.335-2.19,0.171c-0.694-0.163-1.304-0.509-1.83-1.034
		c-0.858-0.857-1.198-1.881-1.02-3.07c0.149-1.003,0.582-1.862,1.299-2.579c0.522-0.522,1.171-0.911,1.946-1.169
		c0.773-0.256,1.496-0.297,2.165-0.121C80.301,56.627,80.871,56.95,81.344,57.423z M80.748,57.634
		c-0.221-0.219-0.506-0.375-0.858-0.465c-0.352-0.092-0.76-0.042-1.224,0.148c-0.465,0.191-0.953,0.543-1.467,1.057
		c-0.829,0.829-1.379,1.708-1.65,2.639c-0.271,0.93-0.138,1.664,0.4,2.203c0.402,0.401,0.899,0.567,1.492,0.496
		c0.592-0.07,1.293-0.51,2.1-1.316c1.012-1.012,1.59-2.024,1.734-3.039C81.379,58.664,81.203,58.09,80.748,57.634z"/>
</g>
</svg>
