<?xml version="1.0" encoding="utf-8"?>
<!-- Generator: Adobe Illustrator 16.0.0, SVG Export Plug-In . SVG Version: 6.00 Build 0)  -->
<!DOCTYPE svg PUBLIC "-//W3C//DTD SVG 1.1//EN" "http://www.w3.org/Graphics/SVG/1.1/DTD/svg11.dtd">
<svg version="1.1" id="Capa_1" xmlns="http://www.w3.org/2000/svg" xmlns:xlink="http://www.w3.org/1999/xlink" x="0px" y="0px"
	 width="111.488px" height="111.488px" viewBox="0 0 111.488 111.488" enable-background="new 0 0 111.488 111.488"
	 xml:space="preserve">
<polygon opacity="0.9" enable-background="new    " points="111.488,71.583 111.488,111.488 0,0 39.905,0 "/>
<g enable-background="new    ">
	<path fill="#FFFFFF" d="M41.637,22.136l-2.455,2.455c-0.53,0.53-0.801,0.917-0.813,1.162c-0.025,0.34,0.122,0.669,0.441,0.988
		l0.323,0.323l-0.23,0.23l-3.611-3.611l0.23-0.23l0.317,0.317c0.356,0.356,0.727,0.495,1.112,0.417
		c0.211-0.045,0.558-0.309,1.038-0.789l5.444-5.444c0.53-0.53,0.804-0.916,0.82-1.156c0.021-0.344-0.128-0.675-0.447-0.994
		l-0.317-0.317l0.23-0.23l3.089,3.089c0.754,0.754,1.271,1.426,1.551,2.017c0.279,0.591,0.384,1.219,0.313,1.887
		c-0.07,0.667-0.358,1.253-0.864,1.758c-0.688,0.688-1.474,1.02-2.358,0.998c-0.885-0.023-1.741-0.449-2.57-1.278
		c-0.203-0.203-0.408-0.437-0.615-0.702C42.058,22.76,41.848,22.464,41.637,22.136z M41.991,21.782
		c0.179,0.261,0.342,0.487,0.492,0.677c0.149,0.191,0.284,0.346,0.404,0.466c0.431,0.431,0.969,0.636,1.616,0.615
		c0.645-0.021,1.234-0.296,1.764-0.827c0.365-0.365,0.629-0.778,0.792-1.24c0.164-0.462,0.187-0.907,0.069-1.336
		c-0.118-0.429-0.351-0.817-0.699-1.165c-0.211-0.211-0.522-0.443-0.933-0.696L41.991,21.782z"/>
	<path fill="#FFFFFF" d="M50.083,26.754l-1.28,1.28c1.33-0.377,2.246-0.314,2.747,0.187c0.228,0.228,0.347,0.486,0.357,0.773
		c0.01,0.289-0.075,0.523-0.258,0.706c-0.162,0.162-0.353,0.244-0.572,0.249c-0.22,0.004-0.404-0.069-0.553-0.218
		c-0.145-0.145-0.236-0.379-0.274-0.703c-0.037-0.323-0.099-0.528-0.186-0.615c-0.075-0.075-0.197-0.114-0.367-0.118
		c-0.356-0.017-0.828,0.07-1.417,0.261l-2.728,2.728c-0.315,0.315-0.514,0.593-0.597,0.833c-0.058,0.166-0.056,0.354,0.006,0.566
		s0.222,0.445,0.479,0.702l-0.224,0.224l-2.915-2.915l0.224-0.224c0.29,0.29,0.551,0.46,0.783,0.509
		c0.17,0.037,0.348,0.004,0.535-0.099c0.091-0.05,0.302-0.241,0.634-0.572l2.206-2.206c0.663-0.663,1.044-1.071,1.144-1.225
		s0.142-0.295,0.127-0.426c-0.014-0.13-0.075-0.249-0.183-0.357c-0.128-0.128-0.304-0.243-0.528-0.341l0.162-0.287l2.417,1.026
		L50.083,26.754z"/>
	<path fill="#FFFFFF" d="M55.44,32.112c0.862,0.862,1.227,1.881,1.094,3.058c-0.116,1.002-0.537,1.867-1.261,2.591
		c-0.51,0.51-1.148,0.904-1.915,1.181s-1.497,0.334-2.19,0.171c-0.694-0.164-1.304-0.508-1.831-1.035
		c-0.858-0.858-1.197-1.881-1.02-3.07c0.149-1.003,0.583-1.863,1.299-2.58c0.522-0.522,1.17-0.912,1.946-1.167
		c0.774-0.257,1.496-0.298,2.166-0.122C54.397,31.315,54.968,31.639,55.44,32.112z M54.844,32.323
		c-0.219-0.219-0.506-0.375-0.858-0.466s-0.76-0.041-1.224,0.149c-0.464,0.191-0.953,0.543-1.467,1.057
		c-0.829,0.829-1.378,1.708-1.65,2.638c-0.271,0.931-0.138,1.665,0.401,2.204c0.402,0.402,0.899,0.568,1.492,0.498
		c0.592-0.071,1.293-0.51,2.101-1.317c1.011-1.011,1.589-2.024,1.734-3.04C55.476,33.352,55.3,32.779,54.844,32.323z"/>
	<path fill="#FFFFFF" d="M59.499,38.594c0.828,0,1.311,0.006,1.447,0.019c0.345,0.029,0.667,0.107,0.97,0.236
		c0.303,0.128,0.56,0.298,0.771,0.51c0.355,0.356,0.559,0.766,0.608,1.23c0.05,0.464-0.078,0.937-0.385,1.417
		c0.924-0.07,1.61-0.037,2.06,0.102c0.45,0.139,0.83,0.364,1.141,0.675c0.303,0.302,0.493,0.648,0.571,1.037
		c0.079,0.39,0.011,0.829-0.205,1.318c-0.148,0.332-0.48,0.754-0.994,1.268l-2.448,2.449c-0.356,0.356-0.574,0.627-0.652,0.814
		c-0.051,0.132-0.052,0.287-0.003,0.463c0.047,0.176,0.197,0.39,0.45,0.643l-0.224,0.224l-2.81-2.809l0.224-0.224l0.118,0.118
		c0.244,0.245,0.482,0.388,0.715,0.429c0.162,0.03,0.336-0.008,0.521-0.112c0.088-0.054,0.297-0.246,0.628-0.578l2.449-2.449
		c0.464-0.464,0.735-0.847,0.814-1.149c0.104-0.427-0.023-0.819-0.38-1.175c-0.22-0.22-0.495-0.386-0.826-0.497
		c-0.332-0.112-0.804-0.176-1.417-0.193l-0.081,0.056l-0.255,0.28l-2.716,2.716c-0.39,0.389-0.609,0.654-0.662,0.792
		c-0.052,0.139-0.05,0.3,0.007,0.485c0.056,0.184,0.229,0.421,0.519,0.711l-0.224,0.224l-2.878-2.877l0.224-0.224
		c0.315,0.315,0.569,0.495,0.762,0.538c0.193,0.044,0.387,0.014,0.581-0.09c0.092-0.05,0.307-0.245,0.646-0.584l2.449-2.449
		c0.464-0.464,0.729-0.866,0.795-1.206c0.083-0.448-0.039-0.835-0.366-1.163c-0.224-0.224-0.506-0.385-0.846-0.485
		c-0.526-0.161-0.996-0.221-1.411-0.18l-3.051,3.052c-0.373,0.373-0.589,0.641-0.649,0.805s-0.067,0.324-0.021,0.482
		c0.044,0.157,0.223,0.391,0.534,0.702l-0.224,0.224l-2.815-2.815l0.224-0.224c0.261,0.261,0.471,0.416,0.631,0.463
		c0.159,0.048,0.327,0.037,0.503-0.031c0.176-0.068,0.44-0.279,0.792-0.631l2.175-2.175c0.626-0.625,1.011-1.048,1.156-1.268
		c0.107-0.166,0.156-0.306,0.146-0.419c-0.011-0.114-0.07-0.225-0.178-0.333c-0.116-0.116-0.286-0.224-0.51-0.323l0.131-0.317
		l2.411,1.02l0.268,0.267L59.499,38.594z"/>
	<path fill="#FFFFFF" d="M71.704,48.375c0.862,0.862,1.227,1.881,1.095,3.058c-0.116,1.002-0.537,1.867-1.262,2.591
		c-0.51,0.51-1.147,0.904-1.915,1.181c-0.766,0.278-1.497,0.334-2.189,0.172c-0.694-0.165-1.305-0.509-1.831-1.036
		c-0.857-0.857-1.197-1.881-1.019-3.069c0.148-1.003,0.581-1.863,1.298-2.58c0.522-0.522,1.17-0.912,1.945-1.168
		c0.775-0.257,1.497-0.297,2.166-0.121C70.662,47.579,71.232,47.904,71.704,48.375z M71.107,48.587
		c-0.22-0.22-0.505-0.375-0.857-0.466s-0.76-0.041-1.224,0.149c-0.464,0.191-0.953,0.543-1.467,1.057
		c-0.829,0.829-1.379,1.708-1.651,2.637c-0.271,0.931-0.136,1.666,0.402,2.204c0.402,0.402,0.898,0.568,1.491,0.497
		c0.593-0.07,1.292-0.51,2.101-1.317c1.011-1.011,1.589-2.023,1.734-3.039C71.74,49.616,71.563,49.043,71.107,48.587z"/>
	<path fill="#FFFFFF" d="M76.422,60.488c-0.903,0.596-1.78,0.873-2.633,0.83c-0.851-0.045-1.548-0.338-2.091-0.881
		c-0.646-0.645-0.938-1.48-0.877-2.504c0.063-1.023,0.556-1.997,1.479-2.92c0.896-0.895,1.889-1.355,2.98-1.383
		c1.092-0.027,2.011,0.333,2.756,1.078c0.56,0.56,0.871,1.167,0.936,1.825c0.064,0.656-0.063,1.145-0.382,1.463
		c-0.157,0.158-0.337,0.234-0.534,0.23c-0.199-0.004-0.39-0.098-0.572-0.279c-0.244-0.244-0.35-0.508-0.316-0.789
		c0.016-0.158,0.135-0.371,0.357-0.637c0.221-0.269,0.323-0.539,0.308-0.812c-0.021-0.27-0.16-0.533-0.417-0.79
		c-0.414-0.414-0.9-0.594-1.46-0.541c-0.742,0.07-1.446,0.439-2.113,1.106c-0.68,0.68-1.112,1.446-1.3,2.3
		c-0.186,0.854,0.004,1.564,0.572,2.133c0.405,0.404,0.91,0.631,1.511,0.676c0.418,0.037,0.985-0.086,1.703-0.373L76.422,60.488z"/>
	<path fill="#FFFFFF" d="M82.897,59.568l-4.574,4.574c-0.356,0.357-0.568,0.619-0.634,0.789c-0.066,0.17-0.078,0.336-0.034,0.494
		c0.044,0.16,0.2,0.375,0.47,0.645l-0.224,0.223l-2.766-2.766l0.224-0.223c0.277,0.277,0.491,0.436,0.64,0.477
		c0.149,0.043,0.314,0.029,0.493-0.039c0.182-0.068,0.448-0.279,0.8-0.631l2.194-2.193c0.617-0.617,0.997-1.037,1.143-1.256
		c0.104-0.162,0.15-0.299,0.14-0.414c-0.01-0.113-0.068-0.225-0.177-0.332c-0.115-0.115-0.288-0.227-0.516-0.328l0.136-0.313
		l2.412,1.02L82.897,59.568z M85.358,56.076c0.174,0.174,0.261,0.383,0.261,0.627c0.001,0.245-0.087,0.453-0.261,0.627
		c-0.175,0.176-0.384,0.264-0.632,0.266c-0.246,0.002-0.455-0.084-0.629-0.258s-0.262-0.385-0.262-0.634s0.087-0.46,0.262-0.634
		c0.174-0.174,0.383-0.262,0.627-0.262C84.969,55.808,85.179,55.897,85.358,56.076z"/>
	<path fill="#FFFFFF" d="M87.254,63.926c0.862,0.861,1.227,1.881,1.095,3.057c-0.116,1.004-0.537,1.867-1.262,2.592
		c-0.51,0.51-1.148,0.902-1.915,1.182c-0.766,0.277-1.497,0.334-2.19,0.17c-0.694-0.164-1.304-0.508-1.83-1.035
		c-0.857-0.857-1.197-1.881-1.02-3.07c0.148-1.002,0.582-1.861,1.299-2.578c0.522-0.521,1.17-0.912,1.945-1.168
		c0.774-0.258,1.497-0.297,2.165-0.121C86.211,63.129,86.781,63.453,87.254,63.926z M86.657,64.136
		c-0.22-0.219-0.505-0.375-0.857-0.467c-0.353-0.09-0.76-0.041-1.224,0.15c-0.464,0.189-0.953,0.543-1.467,1.057
		c-0.829,0.828-1.379,1.709-1.651,2.637c-0.271,0.932-0.137,1.664,0.402,2.203c0.401,0.402,0.898,0.568,1.491,0.498
		c0.592-0.07,1.292-0.51,2.101-1.318c1.011-1.01,1.588-2.023,1.734-3.039C87.289,65.166,87.112,64.592,86.657,64.136z
		 M91.344,62.459l-3.979,0.311l-0.211-0.211l2.797-1.492L91.344,62.459z"/>
	<path fill="#FFFFFF" d="M91.287,70.371c1.472-0.139,2.509,0.096,3.114,0.701c0.311,0.311,0.5,0.654,0.568,1.035
		c0.068,0.379-0.01,0.813-0.232,1.301c-0.158,0.34-0.493,0.768-1.007,1.281l-2.431,2.43c-0.36,0.361-0.575,0.635-0.646,0.82
		c-0.058,0.15-0.065,0.305-0.021,0.463c0.043,0.158,0.202,0.377,0.476,0.65l-0.224,0.223l-2.815-2.814l0.224-0.225l0.118,0.119
		c0.265,0.264,0.491,0.41,0.677,0.434c0.188,0.025,0.38-0.02,0.578-0.137c0.079-0.045,0.282-0.23,0.609-0.559l2.331-2.33
		c0.518-0.518,0.826-0.961,0.926-1.33c0.099-0.369-0.011-0.713-0.33-1.031c-0.493-0.494-1.253-0.715-2.28-0.666l-3.002,3.002
		c-0.385,0.385-0.601,0.646-0.646,0.783c-0.063,0.178-0.07,0.346-0.024,0.504c0.045,0.156,0.224,0.391,0.534,0.701l-0.224,0.225
		l-2.815-2.816l0.224-0.223l0.125,0.125c0.29,0.289,0.559,0.412,0.808,0.365c0.248-0.045,0.58-0.275,0.994-0.689l2.113-2.113
		c0.684-0.684,1.084-1.115,1.202-1.295c0.119-0.18,0.172-0.33,0.162-0.447c-0.011-0.119-0.069-0.232-0.177-0.34
		c-0.116-0.115-0.286-0.223-0.511-0.322l0.131-0.316l2.411,1.018l0.268,0.268L91.287,70.371z"/>
</g>
</svg>
