<?xml version="1.0" encoding="utf-8"?>
<!-- Generator: Adobe Illustrator 16.0.0, SVG Export Plug-In . SVG Version: 6.00 Build 0)  -->
<!DOCTYPE svg PUBLIC "-//W3C//DTD SVG 1.1//EN" "http://www.w3.org/Graphics/SVG/1.1/DTD/svg11.dtd">
<svg version="1.1" id="Capa_1" xmlns="http://www.w3.org/2000/svg" xmlns:xlink="http://www.w3.org/1999/xlink" x="0px" y="0px"
	 width="111.488px" height="111.488px" viewBox="0 0 111.488 111.488" enable-background="new 0 0 111.488 111.488"
	 xml:space="preserve">
<polygon opacity="0.9" enable-background="new    " points="111.488,71.583 111.488,111.488 0,0 39.905,0 "/>
<g enable-background="new    ">
	<path fill="#FFFFFF" d="M45.947,33.53l-2.122-2.121l1.025-6.403c-0.207-0.191-0.373-0.35-0.498-0.474
		c-0.051-0.051-0.105-0.106-0.161-0.167c-0.057-0.06-0.115-0.124-0.173-0.19l-2.309,2.308c-0.5,0.5-0.756,0.865-0.767,1.095
		c-0.024,0.321,0.113,0.63,0.41,0.926l0.31,0.31l-0.217,0.218l-3.404-3.405l0.217-0.217l0.299,0.298
		c0.336,0.336,0.685,0.468,1.048,0.394c0.202-0.038,0.531-0.285,0.984-0.738l5.132-5.132c0.501-0.5,0.756-0.864,0.768-1.095
		c0.019-0.324-0.121-0.638-0.422-0.938L45.77,17.9l0.218-0.217l2.894,2.894c0.844,0.844,1.403,1.528,1.682,2.05
		c0.277,0.523,0.39,1.09,0.34,1.699c-0.052,0.609-0.305,1.142-0.763,1.6c-0.488,0.488-1.071,0.752-1.749,0.794
		c-0.678,0.04-1.424-0.199-2.241-0.718l-0.639,3.92c-0.148,0.898-0.174,1.569-0.075,2.008c0.097,0.443,0.34,0.902,0.727,1.383
		L45.947,33.53z M44.389,23.804c0.074,0.074,0.137,0.14,0.189,0.196c0.053,0.057,0.097,0.103,0.132,0.139
		c0.758,0.758,1.492,1.164,2.206,1.221c0.712,0.056,1.323-0.169,1.83-0.676c0.496-0.496,0.744-1.055,0.745-1.676
		c-0.001-0.621-0.256-1.188-0.768-1.699c-0.227-0.227-0.57-0.495-1.031-0.809L44.389,23.804z"/>
	<path fill="#FFFFFF" d="M50.463,31.357c-0.801,0.792-1.232,1.611-1.295,2.455c-0.063,0.843,0.17,1.529,0.697,2.056
		c0.352,0.351,0.754,0.56,1.208,0.626c0.452,0.066,1.001-0.046,1.646-0.34l0.064,0.299c-0.617,0.454-1.343,0.701-2.176,0.747
		c-0.834,0.045-1.548-0.23-2.141-0.823c-0.645-0.646-0.946-1.447-0.902-2.408c0.042-0.961,0.488-1.865,1.335-2.712
		c0.918-0.918,1.869-1.397,2.854-1.442c0.984-0.042,1.832,0.292,2.542,1.003c0.601,0.601,0.898,1.292,0.888,2.076
		c-0.01,0.783-0.347,1.508-1.011,2.171L50.463,31.357z M50.803,31.016l2.484,2.484c0.324-0.362,0.525-0.646,0.604-0.85
		c0.121-0.316,0.147-0.633,0.079-0.951c-0.069-0.318-0.208-0.584-0.419-0.795c-0.324-0.324-0.741-0.488-1.248-0.49
		C51.795,30.41,51.296,30.611,50.803,31.016z"/>
	<path fill="#FFFFFF" d="M54.934,38.605c-0.168-0.489-0.196-0.965-0.085-1.428c0.111-0.463,0.34-0.868,0.688-1.215
		c0.531-0.532,1.188-0.789,1.972-0.771c0.782,0.018,1.486,0.339,2.112,0.963c0.512,0.512,0.83,1.08,0.954,1.706l1.138,1.137
		c0.167,0.167,0.261,0.27,0.279,0.306c0.017,0.039,0.02,0.075,0.008,0.109c-0.013,0.059-0.063,0.134-0.152,0.222
		c-0.101,0.102-0.182,0.162-0.24,0.182c-0.031,0.008-0.067,0.003-0.108-0.014s-0.146-0.11-0.313-0.278l-0.696-0.698
		c-0.063,0.5-0.313,0.97-0.751,1.407c-0.499,0.499-1.119,0.736-1.857,0.708s-1.431-0.363-2.073-1.006
		c-0.267-0.267-0.499-0.577-0.698-0.933c-0.32-0.023-0.566-0.009-0.737,0.041c-0.173,0.05-0.297,0.116-0.375,0.193
		c-0.066,0.066-0.099,0.164-0.097,0.291c0.002,0.127,0.083,0.297,0.244,0.512c0.094,0.126,0.353,0.413,0.78,0.862
		c0.785,0.824,1.28,1.372,1.481,1.647c0.313,0.414,0.468,0.839,0.466,1.274s-0.163,0.813-0.482,1.133
		c-0.441,0.442-1.063,0.648-1.864,0.621c-1.179-0.04-2.259-0.549-3.24-1.529c-0.753-0.754-1.221-1.56-1.399-2.419
		c-0.098-0.49-0.042-0.839,0.169-1.05c0.094-0.094,0.209-0.166,0.346-0.216c0.211-0.079,0.548-0.142,1.013-0.193
		c0.063-0.008,0.473-0.019,1.23-0.035c-0.082-0.324-0.117-0.576-0.105-0.755c0.012-0.181,0.078-0.331,0.199-0.451
		c0.137-0.137,0.353-0.241,0.648-0.315C53.679,38.541,54.196,38.537,54.934,38.605z M52.919,40.503
		c-0.384,0.015-0.708,0.062-0.973,0.139c-0.266,0.079-0.472,0.19-0.616,0.334c-0.188,0.188-0.238,0.465-0.152,0.833
		c0.148,0.632,0.592,1.319,1.33,2.057c0.703,0.703,1.346,1.097,1.928,1.184c0.582,0.084,1.014-0.013,1.295-0.294
		c0.202-0.203,0.248-0.447,0.134-0.731c-0.116-0.29-0.469-0.744-1.054-1.36C53.956,41.761,53.324,41.042,52.919,40.503z
		 M59.24,36.337c-0.289-0.288-0.646-0.417-1.071-0.381c-0.427,0.035-0.878,0.292-1.354,0.769c-0.618,0.617-0.963,1.228-1.038,1.833
		c-0.054,0.46,0.074,0.847,0.387,1.16c0.297,0.298,0.652,0.43,1.067,0.398c0.412-0.03,0.858-0.285,1.335-0.761
		c0.622-0.621,0.974-1.242,1.055-1.862C59.68,37.034,59.552,36.65,59.24,36.337z"/>
	<path fill="#FFFFFF" d="M64.917,41.452l-4.313,4.312c-0.337,0.335-0.535,0.583-0.597,0.744c-0.063,0.159-0.072,0.314-0.033,0.464
		c0.042,0.151,0.188,0.354,0.443,0.608l-0.212,0.21l-2.606-2.607l0.211-0.21c0.262,0.262,0.463,0.412,0.604,0.451
		c0.139,0.04,0.294,0.026,0.465-0.038c0.17-0.065,0.421-0.263,0.752-0.595l2.068-2.068c0.584-0.583,0.941-0.977,1.079-1.185
		c0.097-0.152,0.141-0.283,0.132-0.389c-0.011-0.108-0.066-0.212-0.168-0.314c-0.108-0.11-0.27-0.214-0.486-0.31l0.13-0.293
		l2.272,0.961L64.917,41.452z M67.237,38.158c0.164,0.163,0.245,0.362,0.247,0.592c-0.002,0.23-0.082,0.428-0.247,0.592
		c-0.163,0.163-0.362,0.245-0.595,0.247c-0.231,0.002-0.431-0.077-0.595-0.242c-0.165-0.165-0.245-0.364-0.245-0.598
		c0-0.234,0.082-0.435,0.246-0.598c0.163-0.165,0.36-0.247,0.592-0.247C66.87,37.906,67.069,37.99,67.237,38.158z"/>
	<path fill="#FFFFFF" d="M69.867,46.402l-1.828,1.827l-0.192-0.192c0.427-0.722,0.626-1.303,0.6-1.743
		c-0.024-0.439-0.217-0.839-0.576-1.198c-0.273-0.273-0.566-0.421-0.878-0.445c-0.313-0.022-0.557,0.053-0.732,0.229
		c-0.221,0.22-0.345,0.47-0.375,0.75c-0.039,0.281,0.037,0.697,0.229,1.248l0.439,1.271c0.406,1.18,0.292,2.085-0.341,2.719
		c-0.488,0.488-1.065,0.697-1.734,0.626c-0.667-0.071-1.229-0.333-1.687-0.791c-0.329-0.327-0.645-0.761-0.949-1.3
		c-0.09-0.168-0.176-0.293-0.259-0.375c-0.088-0.091-0.21-0.11-0.362-0.06l-0.194-0.192l1.917-1.917l0.192,0.193
		c-0.437,0.656-0.641,1.278-0.609,1.864s0.239,1.07,0.621,1.452c0.27,0.27,0.57,0.411,0.897,0.422
		c0.329,0.011,0.604-0.093,0.825-0.317c0.269-0.268,0.4-0.588,0.396-0.963c-0.007-0.372-0.151-0.983-0.437-1.83
		c-0.286-0.849-0.403-1.472-0.353-1.875c0.047-0.399,0.241-0.768,0.581-1.108c0.44-0.44,0.961-0.658,1.56-0.651
		c0.6,0.005,1.141,0.248,1.621,0.729c0.211,0.21,0.422,0.512,0.633,0.901c0.142,0.259,0.244,0.42,0.311,0.486
		c0.063,0.063,0.125,0.099,0.187,0.106c0.063,0.008,0.164-0.011,0.305-0.059L69.867,46.402z"/>
	<path fill="#FFFFFF" d="M74.232,47.555l-1.763,1.764l1.254,1.254l-0.41,0.41l-1.254-1.254l-3.481,3.48
		c-0.347,0.348-0.531,0.632-0.552,0.853c-0.022,0.221,0.046,0.409,0.201,0.565c0.13,0.129,0.295,0.214,0.494,0.255
		c0.202,0.041,0.414,0.018,0.637-0.073l0.229,0.229c-0.521,0.246-1.002,0.341-1.443,0.284c-0.444-0.056-0.798-0.219-1.063-0.484
		c-0.181-0.179-0.307-0.405-0.379-0.676c-0.071-0.272-0.056-0.541,0.048-0.809s0.348-0.594,0.735-0.981l3.608-3.609l-0.85-0.85
		l0.193-0.192c0.301,0.128,0.665,0.202,1.097,0.221c0.428,0.02,0.872-0.022,1.328-0.128c0.239-0.059,0.636-0.206,1.19-0.44
		L74.232,47.555z"/>
	<path fill="#FFFFFF" d="M75.972,52.507l-1.207,1.207c1.254-0.354,2.117-0.296,2.589,0.176c0.215,0.214,0.328,0.458,0.339,0.729
		c0.009,0.271-0.072,0.493-0.244,0.665c-0.151,0.152-0.332,0.229-0.539,0.234c-0.208,0.004-0.381-0.064-0.521-0.206
		c-0.137-0.136-0.223-0.358-0.258-0.661c-0.036-0.307-0.093-0.5-0.175-0.582c-0.071-0.07-0.186-0.108-0.346-0.111
		c-0.337-0.016-0.781,0.067-1.335,0.247l-2.573,2.572c-0.298,0.297-0.484,0.558-0.563,0.786c-0.055,0.155-0.054,0.331,0.006,0.533
		c0.058,0.198,0.208,0.42,0.451,0.66l-0.211,0.211l-2.748-2.748l0.21-0.209c0.274,0.273,0.52,0.434,0.739,0.479
		c0.16,0.035,0.328,0.004,0.504-0.094c0.085-0.046,0.285-0.227,0.598-0.539l2.08-2.081c0.624-0.623,0.985-1.01,1.077-1.153
		c0.095-0.145,0.134-0.279,0.12-0.401s-0.071-0.235-0.173-0.336c-0.12-0.122-0.285-0.23-0.497-0.323l0.152-0.27l2.277,0.968
		L75.972,52.507z"/>
	<path fill="#FFFFFF" d="M77.12,58.015c-0.799,0.792-1.231,1.611-1.295,2.455c-0.062,0.843,0.17,1.528,0.699,2.055
		c0.351,0.352,0.753,0.561,1.207,0.628c0.452,0.066,1.002-0.047,1.646-0.341l0.064,0.299c-0.617,0.454-1.342,0.702-2.176,0.747
		s-1.548-0.229-2.143-0.823c-0.644-0.645-0.945-1.447-0.901-2.408c0.042-0.961,0.488-1.865,1.335-2.712
		c0.919-0.918,1.869-1.398,2.854-1.441c0.983-0.044,1.831,0.291,2.542,1.002c0.602,0.602,0.898,1.293,0.888,2.076
		c-0.01,0.784-0.349,1.509-1.011,2.172L77.12,58.015z M77.462,57.674l2.485,2.485c0.321-0.362,0.522-0.647,0.602-0.851
		c0.12-0.316,0.146-0.632,0.079-0.952c-0.069-0.316-0.208-0.583-0.419-0.793c-0.324-0.326-0.739-0.488-1.248-0.492
		S77.953,57.268,77.462,57.674z"/>
	<path fill="#FFFFFF" d="M87.192,63.726l-1.828,1.827l-0.192-0.191c0.426-0.724,0.625-1.304,0.599-1.743
		c-0.024-0.44-0.216-0.84-0.575-1.199c-0.272-0.272-0.567-0.421-0.88-0.444s-0.557,0.053-0.732,0.227
		c-0.218,0.22-0.344,0.471-0.374,0.751c-0.039,0.281,0.036,0.696,0.229,1.248l0.438,1.271c0.407,1.181,0.294,2.086-0.339,2.719
		c-0.488,0.488-1.068,0.697-1.734,0.626c-0.668-0.07-1.231-0.334-1.688-0.791c-0.327-0.328-0.644-0.762-0.949-1.301
		c-0.09-0.168-0.177-0.291-0.258-0.373c-0.09-0.091-0.21-0.11-0.363-0.06L78.351,66.1l1.916-1.918l0.193,0.194
		c-0.437,0.656-0.64,1.276-0.609,1.863c0.031,0.586,0.238,1.071,0.62,1.453c0.27,0.27,0.569,0.41,0.897,0.422
		c0.328,0.011,0.604-0.093,0.827-0.317c0.268-0.269,0.398-0.59,0.396-0.963c-0.008-0.372-0.153-0.984-0.438-1.831
		c-0.285-0.849-0.402-1.472-0.352-1.875c0.047-0.397,0.24-0.768,0.58-1.107c0.44-0.441,0.961-0.659,1.561-0.653
		c0.599,0.006,1.141,0.249,1.619,0.73c0.213,0.21,0.422,0.51,0.635,0.901c0.141,0.258,0.243,0.42,0.311,0.486
		c0.063,0.063,0.124,0.098,0.187,0.106c0.063,0.007,0.163-0.011,0.305-0.059L87.192,63.726z"/>
	<path fill="#FFFFFF" d="M87.116,68.01c-0.802,0.792-1.232,1.611-1.295,2.454c-0.062,0.844,0.17,1.529,0.697,2.057
		c0.352,0.352,0.754,0.561,1.208,0.626c0.452,0.068,1-0.047,1.646-0.338l0.063,0.298c-0.616,0.453-1.343,0.702-2.176,0.747
		c-0.834,0.045-1.546-0.23-2.142-0.823c-0.645-0.644-0.945-1.447-0.901-2.408c0.043-0.96,0.488-1.865,1.335-2.712
		c0.919-0.919,1.869-1.398,2.855-1.441c0.982-0.044,1.829,0.291,2.54,1.002c0.603,0.602,0.896,1.295,0.889,2.076
		c-0.01,0.783-0.347,1.507-1.013,2.172L87.116,68.01z M87.456,67.669l2.484,2.485c0.324-0.364,0.525-0.646,0.604-0.851
		c0.12-0.315,0.147-0.634,0.079-0.952c-0.069-0.318-0.208-0.583-0.418-0.793c-0.325-0.325-0.741-0.488-1.248-0.493
		C88.448,67.061,87.948,67.263,87.456,67.669z"/>
</g>
</svg>
