<?xml version="1.0" encoding="utf-8"?>
<!-- Generator: Adobe Illustrator 16.0.0, SVG Export Plug-In . SVG Version: 6.00 Build 0)  -->
<!DOCTYPE svg PUBLIC "-//W3C//DTD SVG 1.1//EN" "http://www.w3.org/Graphics/SVG/1.1/DTD/svg11.dtd">
<svg version="1.1" id="Capa_1" xmlns="http://www.w3.org/2000/svg" xmlns:xlink="http://www.w3.org/1999/xlink" x="0px" y="0px"
	 width="111.488px" height="111.488px" viewBox="0 0 111.488 111.488" enable-background="new 0 0 111.488 111.488"
	 xml:space="preserve">
<polygon opacity="0.9" enable-background="new    " points="111.488,71.583 111.488,111.488 0,0 39.905,0 "/>
<g enable-background="new    ">
	<path fill="#FFFFFF" d="M39.118,26.732l-2.027-2.026l0.979-6.117c-0.198-0.183-0.356-0.334-0.476-0.453
		c-0.048-0.049-0.101-0.102-0.153-0.159c-0.056-0.058-0.111-0.118-0.166-0.182l-2.206,2.205c-0.479,0.477-0.722,0.826-0.733,1.046
		c-0.023,0.306,0.109,0.602,0.392,0.883l0.297,0.296l-0.208,0.208l-3.251-3.254l0.208-0.206l0.285,0.285
		c0.321,0.32,0.654,0.447,1.001,0.375c0.194-0.035,0.508-0.272,0.94-0.704l4.903-4.903c0.478-0.478,0.722-0.826,0.732-1.046
		c0.019-0.309-0.115-0.608-0.403-0.896l-0.285-0.286l0.208-0.206l2.764,2.764c0.806,0.806,1.341,1.461,1.606,1.959
		c0.265,0.5,0.373,1.042,0.325,1.624c-0.049,0.581-0.292,1.091-0.729,1.528c-0.467,0.467-1.023,0.719-1.669,0.759
		c-0.649,0.037-1.36-0.191-2.142-0.687l-0.61,3.745c-0.141,0.858-0.167,1.499-0.071,1.918c0.091,0.424,0.324,0.862,0.693,1.322
		L39.118,26.732z M37.629,17.442c0.07,0.069,0.131,0.134,0.182,0.188c0.049,0.054,0.092,0.099,0.126,0.132
		c0.724,0.724,1.425,1.112,2.107,1.166c0.682,0.054,1.263-0.161,1.748-0.646c0.474-0.473,0.711-1.008,0.712-1.6
		c-0.001-0.593-0.245-1.134-0.734-1.624c-0.216-0.216-0.544-0.474-0.984-0.772L37.629,17.442z"/>
	<path fill="#FFFFFF" d="M43.432,24.657c-0.765,0.757-1.176,1.539-1.238,2.345c-0.059,0.805,0.163,1.462,0.667,1.964
		c0.336,0.335,0.72,0.535,1.154,0.598c0.431,0.063,0.956-0.044,1.572-0.325l0.062,0.286c-0.589,0.434-1.284,0.67-2.08,0.713
		c-0.796,0.043-1.478-0.22-2.046-0.787c-0.616-0.615-0.904-1.382-0.863-2.301c0.042-0.917,0.468-1.78,1.276-2.59
		c0.878-0.878,1.786-1.335,2.726-1.377c0.94-0.04,1.75,0.279,2.43,0.959c0.574,0.574,0.857,1.235,0.849,1.983
		c-0.009,0.747-0.332,1.44-0.967,2.074L43.432,24.657z M43.758,24.331l2.373,2.372c0.308-0.345,0.501-0.616,0.576-0.812
		c0.115-0.301,0.141-0.604,0.076-0.909c-0.066-0.303-0.199-0.559-0.4-0.76c-0.31-0.308-0.707-0.466-1.193-0.468
		C44.705,23.752,44.227,23.944,43.758,24.331z"/>
	<path fill="#FFFFFF" d="M47.703,31.581c-0.161-0.468-0.188-0.923-0.081-1.365c0.105-0.441,0.325-0.83,0.656-1.16
		c0.508-0.509,1.136-0.753,1.885-0.738c0.747,0.018,1.42,0.325,2.017,0.922c0.49,0.489,0.793,1.032,0.912,1.629l1.086,1.086
		c0.16,0.161,0.25,0.259,0.267,0.293c0.017,0.036,0.02,0.071,0.007,0.104c-0.011,0.056-0.06,0.128-0.145,0.212
		c-0.097,0.097-0.175,0.155-0.229,0.173c-0.03,0.009-0.064,0.004-0.104-0.014c-0.039-0.017-0.138-0.105-0.298-0.266l-0.666-0.667
		c-0.059,0.479-0.299,0.927-0.716,1.345c-0.478,0.477-1.07,0.703-1.775,0.677c-0.706-0.025-1.366-0.347-1.981-0.961
		c-0.254-0.254-0.475-0.551-0.667-0.891c-0.305-0.022-0.541-0.008-0.703,0.04c-0.166,0.048-0.285,0.111-0.359,0.185
		c-0.064,0.064-0.094,0.157-0.093,0.277c0.002,0.122,0.079,0.285,0.232,0.489c0.09,0.12,0.337,0.395,0.744,0.823
		c0.75,0.788,1.222,1.312,1.416,1.573c0.298,0.395,0.448,0.801,0.445,1.217c-0.001,0.417-0.156,0.777-0.462,1.083
		c-0.421,0.423-1.015,0.62-1.779,0.594c-1.126-0.038-2.159-0.524-3.096-1.462c-0.72-0.72-1.167-1.49-1.337-2.311
		c-0.093-0.469-0.039-0.801,0.163-1.003c0.089-0.089,0.2-0.158,0.33-0.207c0.203-0.075,0.524-0.135,0.969-0.185
		c0.06-0.007,0.451-0.018,1.175-0.033c-0.078-0.31-0.112-0.551-0.101-0.722c0.011-0.173,0.074-0.315,0.19-0.429
		c0.131-0.131,0.337-0.231,0.62-0.301C46.505,31.519,46.997,31.516,47.703,31.581z M45.779,33.394
		c-0.366,0.015-0.675,0.059-0.929,0.133c-0.253,0.075-0.451,0.182-0.588,0.32c-0.179,0.179-0.228,0.444-0.146,0.795
		c0.141,0.604,0.565,1.26,1.27,1.964c0.672,0.671,1.286,1.049,1.841,1.131c0.556,0.081,0.968-0.012,1.237-0.282
		c0.195-0.193,0.238-0.427,0.128-0.697c-0.111-0.276-0.447-0.71-1.007-1.299C46.768,34.595,46.164,33.909,45.779,33.394z
		 M51.816,29.414c-0.275-0.275-0.617-0.398-1.024-0.364c-0.407,0.033-0.836,0.279-1.293,0.734c-0.589,0.589-0.919,1.173-0.991,1.751
		c-0.052,0.44,0.071,0.81,0.371,1.107c0.283,0.285,0.622,0.411,1.018,0.381c0.395-0.028,0.82-0.272,1.276-0.727
		c0.593-0.595,0.93-1.188,1.008-1.779C52.237,30.08,52.114,29.713,51.816,29.414z"/>
	<path fill="#FFFFFF" d="M57.24,34.3l-4.119,4.12c-0.321,0.321-0.512,0.557-0.57,0.711c-0.061,0.153-0.07,0.299-0.032,0.443
		c0.04,0.145,0.18,0.339,0.423,0.581l-0.202,0.202l-2.491-2.492l0.202-0.2c0.249,0.249,0.441,0.394,0.576,0.429
		c0.134,0.038,0.283,0.025,0.444-0.035c0.163-0.063,0.402-0.251,0.719-0.567l1.977-1.976c0.556-0.557,0.899-0.933,1.031-1.131
		c0.092-0.146,0.135-0.27,0.126-0.372c-0.009-0.104-0.063-0.204-0.16-0.3c-0.104-0.105-0.257-0.204-0.464-0.295l0.123-0.281
		l2.171,0.919L57.24,34.3z M59.457,31.154c0.155,0.157,0.233,0.346,0.234,0.566c-0.001,0.219-0.078,0.408-0.234,0.564
		c-0.157,0.157-0.348,0.235-0.568,0.237c-0.223,0.002-0.412-0.074-0.57-0.231c-0.155-0.158-0.232-0.348-0.232-0.571
		c0-0.224,0.079-0.415,0.233-0.571c0.157-0.157,0.345-0.235,0.565-0.235S59.296,30.993,59.457,31.154z"/>
	<path fill="#FFFFFF" d="M61.969,39.03l-1.746,1.746l-0.185-0.184c0.408-0.69,0.599-1.245,0.573-1.665
		c-0.024-0.42-0.207-0.802-0.551-1.146c-0.261-0.26-0.542-0.401-0.839-0.425c-0.299-0.022-0.532,0.05-0.699,0.218
		c-0.21,0.209-0.33,0.448-0.358,0.716c-0.038,0.268,0.035,0.666,0.218,1.192l0.419,1.215c0.391,1.127,0.28,1.992-0.323,2.597
		c-0.469,0.466-1.02,0.666-1.657,0.598c-0.638-0.067-1.175-0.318-1.612-0.755c-0.313-0.313-0.615-0.728-0.906-1.241
		c-0.086-0.161-0.168-0.279-0.246-0.358c-0.085-0.086-0.203-0.105-0.348-0.057l-0.184-0.184l1.83-1.831l0.186,0.185
		c-0.419,0.627-0.612,1.221-0.583,1.779c0.03,0.562,0.229,1.023,0.594,1.388c0.257,0.257,0.543,0.393,0.854,0.403
		c0.316,0.011,0.577-0.088,0.789-0.302c0.257-0.256,0.384-0.563,0.38-0.921c-0.007-0.355-0.146-0.939-0.418-1.749
		c-0.272-0.811-0.384-1.406-0.337-1.791c0.045-0.381,0.229-0.733,0.554-1.058c0.423-0.421,0.919-0.629,1.491-0.623
		c0.574,0.005,1.089,0.237,1.548,0.697c0.202,0.201,0.404,0.488,0.605,0.862c0.135,0.247,0.233,0.401,0.296,0.464
		c0.062,0.06,0.119,0.094,0.179,0.102c0.061,0.008,0.157-0.01,0.291-0.056L61.969,39.03z"/>
	<path fill="#FFFFFF" d="M66.139,40.131l-1.685,1.686l1.196,1.198l-0.391,0.391l-1.198-1.197l-3.325,3.324
		c-0.331,0.333-0.508,0.604-0.527,0.815c-0.021,0.21,0.044,0.39,0.194,0.539c0.122,0.123,0.28,0.204,0.472,0.244
		c0.192,0.039,0.395,0.017,0.609-0.069l0.217,0.218c-0.497,0.236-0.957,0.327-1.378,0.271c-0.426-0.054-0.762-0.208-1.016-0.462
		c-0.174-0.171-0.292-0.385-0.361-0.646c-0.069-0.26-0.054-0.519,0.045-0.773c0.099-0.255,0.333-0.567,0.702-0.937l3.447-3.448
		l-0.812-0.812l0.186-0.184c0.288,0.123,0.636,0.192,1.048,0.211c0.409,0.019,0.833-0.022,1.269-0.123
		c0.229-0.056,0.607-0.196,1.137-0.42L66.139,40.131z"/>
	<path fill="#FFFFFF" d="M65.082,46.305c-0.766,0.757-1.178,1.54-1.237,2.345c-0.061,0.807,0.162,1.461,0.666,1.964
		c0.335,0.337,0.72,0.535,1.152,0.6c0.432,0.063,0.958-0.046,1.572-0.324l0.063,0.285c-0.589,0.432-1.285,0.671-2.08,0.714
		c-0.796,0.043-1.478-0.22-2.045-0.788c-0.616-0.614-0.903-1.381-0.862-2.301c0.041-0.917,0.467-1.78,1.276-2.59
		c0.878-0.878,1.785-1.336,2.726-1.377s1.75,0.279,2.428,0.958c0.573,0.574,0.858,1.238,0.85,1.984
		c-0.012,0.749-0.333,1.439-0.969,2.075L65.082,46.305z M65.406,45.98l2.372,2.372c0.311-0.345,0.504-0.616,0.576-0.811
		c0.115-0.301,0.142-0.606,0.075-0.91c-0.065-0.304-0.198-0.557-0.398-0.757c-0.31-0.311-0.709-0.467-1.193-0.471
		C66.354,45.4,65.876,45.593,65.406,45.98z"/>
	<path fill="#FFFFFF" d="M72.888,49.949l-1.152,1.151c1.198-0.338,2.023-0.284,2.474,0.168c0.205,0.206,0.313,0.437,0.321,0.696
		c0.013,0.26-0.067,0.473-0.231,0.637c-0.146,0.146-0.317,0.219-0.516,0.224c-0.198,0.004-0.363-0.062-0.498-0.196
		c-0.131-0.13-0.212-0.341-0.247-0.632c-0.032-0.291-0.089-0.476-0.168-0.555c-0.067-0.068-0.176-0.102-0.329-0.106
		c-0.32-0.015-0.745,0.064-1.276,0.235l-2.457,2.457c-0.283,0.285-0.463,0.533-0.538,0.75c-0.052,0.148-0.05,0.319,0.006,0.508
		c0.057,0.19,0.2,0.401,0.431,0.633l-0.199,0.203l-2.627-2.627l0.203-0.2c0.259,0.262,0.497,0.414,0.704,0.458
		c0.153,0.034,0.313,0.004,0.481-0.089c0.081-0.044,0.272-0.217,0.569-0.515l1.988-1.989c0.597-0.596,0.94-0.964,1.029-1.102
		c0.09-0.138,0.128-0.267,0.114-0.382c-0.015-0.118-0.067-0.226-0.163-0.324c-0.116-0.115-0.274-0.218-0.478-0.306l0.146-0.257
		l2.179,0.922L72.888,49.949z"/>
	<path fill="#FFFFFF" d="M87.098,59.189l-2.405,2.755l-0.174-0.174c0.542-1.004,0.767-1.891,0.678-2.659
		c-0.09-0.769-0.434-1.451-1.036-2.053c-0.503-0.504-1.086-0.833-1.748-0.983c-0.661-0.151-1.391-0.064-2.183,0.264
		c-0.794,0.327-1.606,0.905-2.439,1.737c-0.688,0.688-1.17,1.392-1.456,2.116c-0.282,0.724-0.337,1.439-0.163,2.151
		c0.173,0.71,0.544,1.35,1.111,1.915c0.491,0.493,1.031,0.824,1.618,0.988c0.589,0.166,1.422,0.162,2.501-0.014l0.062,0.285
		c-1.056,0.295-1.994,0.346-2.813,0.152c-0.82-0.193-1.58-0.64-2.279-1.337c-1.256-1.258-1.765-2.698-1.521-4.321
		c0.179-1.209,0.739-2.284,1.682-3.224c0.754-0.756,1.622-1.284,2.595-1.577c0.973-0.295,1.932-0.321,2.877-0.074
		c0.943,0.247,1.769,0.723,2.474,1.429c0.548,0.548,0.954,1.222,1.22,2.025c0.074,0.239,0.147,0.391,0.214,0.457
		c0.101,0.101,0.224,0.153,0.368,0.157c0.198-0.004,0.406-0.072,0.627-0.21L87.098,59.189z"/>
	<path fill="#FFFFFF" d="M84.083,70.22c-0.932-0.118-1.497-0.213-1.694-0.285c-0.295-0.108-0.556-0.278-0.784-0.505
		c-0.354-0.354-0.524-0.767-0.513-1.238c0.013-0.475,0.218-0.906,0.613-1.303c0.248-0.249,0.52-0.409,0.817-0.48
		c0.406-0.102,0.911-0.074,1.513,0.081c0.603,0.153,1.506,0.513,2.705,1.072l0.203-0.203c0.511-0.512,0.782-0.943,0.809-1.294
		c0.029-0.354-0.113-0.686-0.423-0.995c-0.235-0.235-0.485-0.358-0.749-0.37c-0.27-0.015-0.485,0.062-0.65,0.225l-0.313,0.336
		c-0.171,0.173-0.348,0.26-0.528,0.266c-0.182,0.007-0.342-0.063-0.483-0.203c-0.139-0.138-0.204-0.3-0.195-0.484
		c0.011-0.186,0.1-0.36,0.268-0.528c0.32-0.32,0.779-0.451,1.375-0.391c0.598,0.06,1.193,0.386,1.785,0.979
		c0.456,0.455,0.754,0.903,0.891,1.349c0.105,0.335,0.085,0.678-0.056,1.028c-0.095,0.23-0.388,0.591-0.884,1.087l-1.741,1.74
		c-0.489,0.487-0.778,0.797-0.87,0.926c-0.091,0.129-0.135,0.232-0.129,0.313c0.005,0.08,0.037,0.148,0.093,0.203
		c0.06,0.061,0.125,0.1,0.195,0.119c0.126,0.029,0.413,0.044,0.863,0.044l-0.314,0.313c-0.977,0.143-1.656,0.021-2.037-0.358
		c-0.184-0.183-0.266-0.392-0.246-0.626C83.621,70.803,83.781,70.531,84.083,70.22z M84.448,69.857l1.952-1.954
		c-0.788-0.338-1.311-0.544-1.566-0.614c-0.46-0.131-0.842-0.172-1.147-0.119c-0.308,0.054-0.565,0.187-0.779,0.398
		c-0.27,0.27-0.411,0.572-0.428,0.908c-0.02,0.339,0.079,0.612,0.287,0.821C83.052,69.581,83.611,69.768,84.448,69.857z"/>
	<path fill="#FFFFFF" d="M92.303,69.365l-1.152,1.152c1.198-0.339,2.022-0.283,2.475,0.168c0.206,0.205,0.313,0.438,0.323,0.698
		c0.009,0.257-0.068,0.47-0.233,0.635c-0.145,0.146-0.317,0.22-0.515,0.225c-0.198,0.003-0.365-0.063-0.499-0.198
		c-0.13-0.13-0.212-0.341-0.247-0.632c-0.032-0.292-0.089-0.475-0.166-0.554c-0.068-0.067-0.178-0.104-0.332-0.108
		c-0.32-0.016-0.745,0.065-1.276,0.235l-2.457,2.459c-0.282,0.284-0.46,0.533-0.536,0.75c-0.053,0.15-0.05,0.318,0.007,0.51
		s0.199,0.4,0.431,0.632l-0.202,0.203l-2.625-2.625l0.201-0.202c0.262,0.261,0.496,0.414,0.705,0.458
		c0.154,0.034,0.313,0.005,0.48-0.09c0.082-0.043,0.272-0.215,0.572-0.516l1.985-1.985c0.597-0.597,0.941-0.967,1.031-1.104
		c0.088-0.14,0.126-0.266,0.112-0.384c-0.013-0.116-0.067-0.224-0.163-0.32c-0.117-0.116-0.273-0.22-0.477-0.309l0.146-0.257
		l2.178,0.924L92.303,69.365z"/>
	<path fill="#FFFFFF" d="M93.542,80.006c-0.512,0.011-0.942-0.046-1.294-0.17c-0.353-0.125-0.666-0.328-0.942-0.604
		c-0.561-0.561-0.815-1.283-0.765-2.169c0.051-0.887,0.442-1.697,1.178-2.431c0.734-0.736,1.639-1.178,2.712-1.325
		c1.072-0.148,1.973,0.144,2.7,0.871c0.451,0.452,0.681,0.967,0.688,1.552l0.947-0.947c0.587-0.586,0.932-0.959,1.04-1.123
		c0.106-0.161,0.152-0.296,0.142-0.405c-0.012-0.109-0.062-0.205-0.152-0.296c-0.098-0.098-0.254-0.195-0.474-0.296l0.121-0.27
		l2.154,0.901l0.253,0.253l-5.929,5.926c-0.6,0.601-0.951,0.982-1.057,1.142c-0.104,0.161-0.153,0.298-0.142,0.412
		c0.008,0.113,0.053,0.213,0.135,0.294c0.102,0.101,0.268,0.204,0.499,0.307l-0.134,0.257l-2.155-0.889l-0.258-0.257L93.542,80.006z
		 M93.933,79.614l2.644-2.643c0.229-0.274,0.394-0.574,0.492-0.895c0.097-0.32,0.105-0.627,0.025-0.919
		c-0.077-0.292-0.203-0.522-0.38-0.699c-0.328-0.328-0.768-0.474-1.322-0.437c-0.728,0.05-1.464,0.446-2.209,1.194
		c-0.754,0.753-1.168,1.494-1.241,2.225c-0.071,0.728,0.093,1.297,0.496,1.698C92.779,79.477,93.277,79.636,93.933,79.614z"/>
</g>
</svg>
