<?xml version="1.0" encoding="utf-8"?>
<!-- Generator: Adobe Illustrator 16.0.0, SVG Export Plug-In . SVG Version: 6.00 Build 0)  -->
<!DOCTYPE svg PUBLIC "-//W3C//DTD SVG 1.1//EN" "http://www.w3.org/Graphics/SVG/1.1/DTD/svg11.dtd">
<svg version="1.1" id="Capa_1" xmlns="http://www.w3.org/2000/svg" xmlns:xlink="http://www.w3.org/1999/xlink" x="0px" y="0px"
	 width="111.488px" height="111.488px" viewBox="0 0 111.488 111.488" enable-background="new 0 0 111.488 111.488"
	 xml:space="preserve">
<polygon opacity="0.9" enable-background="new    " points="111.488,71.583 111.488,111.488 0,0 39.905,0 "/>
<g enable-background="new    ">
	<path fill="#FFFFFF" d="M44.883,18.443l0.209-0.209l2.708,2.708l-0.209,0.209l-0.288-0.288c-0.301-0.301-0.658-0.406-1.072-0.316
		c-0.195,0.038-0.505,0.269-0.93,0.694l-3.103,3.103c-0.767,0.767-1.438,1.286-2.014,1.557c-0.576,0.271-1.237,0.335-1.986,0.192
		c-0.748-0.143-1.506-0.598-2.273-1.365c-0.835-0.835-1.324-1.614-1.467-2.336c-0.143-0.722-0.06-1.417,0.248-2.087
		c0.214-0.455,0.783-1.143,1.704-2.064L39.4,15.25c0.47-0.47,0.713-0.843,0.73-1.12c0.017-0.276-0.12-0.559-0.41-0.849l-0.287-0.287
		l0.209-0.209l3.306,3.306L42.739,16.3l-0.293-0.293c-0.316-0.316-0.641-0.442-0.976-0.378c-0.23,0.041-0.559,0.276-0.988,0.705
		l-3.333,3.333c-0.297,0.297-0.61,0.666-0.939,1.103c-0.329,0.438-0.529,0.836-0.601,1.193s-0.042,0.74,0.087,1.147
		c0.13,0.409,0.39,0.807,0.782,1.199c0.5,0.5,1.057,0.839,1.67,1.016c0.612,0.177,1.161,0.167,1.646-0.028s1.135-0.699,1.947-1.511
		l3.097-3.097c0.478-0.478,0.723-0.83,0.739-1.055c0.019-0.312-0.117-0.613-0.407-0.903L44.883,18.443z M47.483,15.651l-3.61,0.282
		l-0.192-0.192l2.538-1.354L47.483,15.651z"/>
	<path fill="#FFFFFF" d="M50.432,22.831l-6.854,6.854c-0.323,0.323-0.514,0.561-0.572,0.714c-0.058,0.152-0.066,0.304-0.022,0.457
		c0.043,0.151,0.198,0.361,0.465,0.628l-0.203,0.203l-2.533-2.533l0.203-0.203c0.237,0.237,0.423,0.374,0.559,0.412
		c0.135,0.038,0.284,0.024,0.446-0.04c0.161-0.064,0.402-0.256,0.722-0.575l4.693-4.693c0.583-0.583,0.928-0.954,1.035-1.114
		c0.107-0.16,0.156-0.294,0.147-0.401c-0.01-0.107-0.06-0.206-0.15-0.296c-0.097-0.097-0.252-0.191-0.462-0.282l0.101-0.293
		l2.172,0.908L50.432,22.831z"/>
	<path fill="#FFFFFF" d="M52.21,26.921l-1.698,1.698l1.207,1.207l-0.395,0.395l-1.207-1.207l-3.351,3.351
		c-0.334,0.334-0.513,0.608-0.533,0.82c-0.021,0.213,0.044,0.394,0.195,0.544c0.124,0.124,0.283,0.206,0.477,0.245
		c0.193,0.04,0.397,0.016,0.612-0.07l0.219,0.219c-0.499,0.237-0.963,0.328-1.389,0.274c-0.428-0.055-0.769-0.21-1.024-0.465
		c-0.173-0.173-0.294-0.39-0.365-0.652c-0.069-0.261-0.054-0.521,0.045-0.779c0.1-0.257,0.336-0.572,0.708-0.944l3.475-3.475
		l-0.818-0.818l0.186-0.186c0.29,0.124,0.642,0.195,1.055,0.214c0.414,0.019,0.841-0.022,1.281-0.124
		c0.229-0.057,0.611-0.198,1.145-0.423L52.21,26.921z"/>
	<path fill="#FFFFFF" d="M54.156,31.957l-4.152,4.152c-0.323,0.323-0.515,0.562-0.575,0.716c-0.06,0.155-0.071,0.304-0.031,0.449
		c0.04,0.145,0.181,0.339,0.426,0.584l-0.203,0.203l-2.511-2.511l0.203-0.203c0.252,0.252,0.445,0.396,0.582,0.435
		c0.135,0.037,0.284,0.024,0.448-0.037c0.163-0.063,0.405-0.253,0.725-0.572l1.991-1.991c0.561-0.561,0.907-0.94,1.038-1.14
		c0.093-0.147,0.136-0.271,0.127-0.375c-0.01-0.104-0.064-0.205-0.161-0.302c-0.105-0.105-0.261-0.206-0.468-0.299l0.124-0.282
		l2.189,0.925L54.156,31.957z M56.389,28.787c0.158,0.158,0.236,0.348,0.236,0.57c0.001,0.222-0.079,0.412-0.236,0.57
		c-0.158,0.158-0.349,0.238-0.573,0.239c-0.224,0.002-0.415-0.076-0.573-0.234s-0.237-0.35-0.236-0.575
		c0-0.226,0.079-0.417,0.236-0.575c0.158-0.158,0.348-0.237,0.57-0.237C56.035,28.544,56.227,28.626,56.389,28.787z"/>
	<path fill="#FFFFFF" d="M56.017,36.019c0.752,0,1.19,0.005,1.314,0.017c0.313,0.027,0.605,0.098,0.88,0.214
		c0.273,0.116,0.508,0.271,0.698,0.462c0.324,0.324,0.509,0.697,0.554,1.117c0.045,0.421-0.071,0.85-0.35,1.286
		c0.838-0.064,1.462-0.033,1.87,0.093c0.407,0.126,0.753,0.33,1.034,0.612c0.275,0.275,0.447,0.588,0.52,0.942
		c0.071,0.354,0.009,0.752-0.187,1.196c-0.135,0.301-0.437,0.684-0.902,1.15l-2.223,2.223c-0.323,0.323-0.521,0.569-0.592,0.739
		c-0.046,0.12-0.046,0.261-0.004,0.42c0.044,0.16,0.181,0.355,0.409,0.584l-0.203,0.203l-2.549-2.549l0.203-0.203l0.106,0.107
		c0.222,0.222,0.438,0.352,0.649,0.39c0.146,0.026,0.305-0.007,0.474-0.102c0.079-0.049,0.27-0.223,0.57-0.524l2.222-2.223
		c0.422-0.421,0.667-0.77,0.739-1.044c0.094-0.387-0.021-0.742-0.345-1.066c-0.198-0.199-0.448-0.349-0.75-0.451
		c-0.301-0.102-0.729-0.16-1.286-0.175l-0.073,0.051l-0.231,0.253l-2.465,2.465c-0.354,0.354-0.553,0.593-0.601,0.719
		c-0.047,0.126-0.045,0.273,0.006,0.44c0.051,0.168,0.208,0.382,0.471,0.646l-0.203,0.203l-2.612-2.612l0.203-0.203
		c0.286,0.286,0.517,0.449,0.691,0.488c0.174,0.04,0.351,0.013,0.528-0.082c0.082-0.045,0.278-0.222,0.586-0.53l2.222-2.223
		c0.422-0.421,0.662-0.786,0.722-1.095c0.075-0.407-0.035-0.758-0.332-1.055c-0.203-0.203-0.459-0.35-0.768-0.44
		c-0.478-0.147-0.904-0.201-1.28-0.163l-2.77,2.77c-0.338,0.338-0.535,0.582-0.589,0.73s-0.061,0.294-0.02,0.437
		s0.203,0.355,0.485,0.638l-0.203,0.203l-2.556-2.556l0.203-0.203c0.237,0.237,0.428,0.377,0.573,0.42
		c0.145,0.043,0.297,0.034,0.457-0.028c0.159-0.063,0.399-0.253,0.719-0.572l1.975-1.975c0.567-0.567,0.917-0.951,1.049-1.15
		c0.098-0.15,0.142-0.277,0.133-0.38c-0.01-0.104-0.064-0.205-0.161-0.302c-0.106-0.106-0.259-0.204-0.463-0.294l0.119-0.288
		l2.188,0.925l0.243,0.243L56.017,36.019z"/>
	<path fill="#FFFFFF" d="M67.095,44.897c0.782,0.783,1.113,1.708,0.993,2.776c-0.105,0.91-0.487,1.694-1.146,2.352
		c-0.463,0.462-1.042,0.819-1.737,1.071c-0.695,0.252-1.358,0.304-1.989,0.155c-0.629-0.148-1.183-0.461-1.66-0.939
		c-0.778-0.778-1.087-1.707-0.925-2.786c0.135-0.91,0.528-1.689,1.179-2.34c0.475-0.474,1.063-0.828,1.766-1.061
		s1.358-0.27,1.966-0.11C66.148,44.175,66.667,44.469,67.095,44.897z M66.553,45.089c-0.199-0.199-0.458-0.34-0.778-0.423
		c-0.319-0.083-0.689-0.038-1.11,0.136c-0.422,0.172-0.865,0.492-1.331,0.958c-0.753,0.752-1.252,1.55-1.498,2.394
		s-0.125,1.511,0.364,2c0.364,0.364,0.815,0.515,1.354,0.451s1.172-0.463,1.905-1.197c0.918-0.917,1.442-1.836,1.574-2.758
		C67.128,46.024,66.968,45.503,66.553,45.089z"/>
	<path fill="#FFFFFF" d="M73.684,51.487l-1.76,1.76l-0.187-0.187c0.409-0.697,0.603-1.255,0.578-1.678s-0.209-0.808-0.555-1.153
		c-0.264-0.264-0.547-0.407-0.847-0.429c-0.302-0.023-0.536,0.051-0.705,0.221c-0.21,0.21-0.331,0.451-0.361,0.721
		c-0.037,0.271,0.035,0.671,0.22,1.202l0.424,1.225c0.391,1.135,0.281,2.007-0.327,2.617c-0.471,0.47-1.027,0.671-1.67,0.603
		c-0.643-0.066-1.185-0.321-1.624-0.761c-0.316-0.316-0.621-0.734-0.915-1.253c-0.086-0.161-0.168-0.281-0.247-0.36
		c-0.087-0.087-0.203-0.105-0.35-0.056l-0.187-0.187l1.844-1.845l0.187,0.187c-0.421,0.632-0.616,1.23-0.586,1.794
		c0.029,0.564,0.229,1.03,0.598,1.398c0.26,0.26,0.547,0.395,0.862,0.406c0.316,0.012,0.581-0.09,0.796-0.305
		c0.259-0.26,0.387-0.568,0.381-0.928s-0.146-0.947-0.421-1.763c-0.274-0.816-0.386-1.417-0.338-1.805
		c0.044-0.384,0.231-0.739,0.559-1.066c0.425-0.425,0.926-0.635,1.503-0.629c0.577,0.005,1.097,0.239,1.56,0.702
		c0.203,0.203,0.406,0.493,0.61,0.869c0.135,0.248,0.234,0.404,0.298,0.467c0.061,0.061,0.12,0.094,0.181,0.102
		c0.061,0.008,0.158-0.011,0.293-0.057L73.684,51.487z"/>
	<path fill="#FFFFFF" d="M76.639,63.919c-0.515,0.011-0.951-0.047-1.306-0.173c-0.355-0.127-0.673-0.329-0.95-0.606
		c-0.564-0.564-0.821-1.292-0.771-2.187c0.051-0.893,0.446-1.71,1.187-2.45c0.741-0.741,1.652-1.186,2.734-1.334
		c1.081-0.147,1.987,0.144,2.721,0.877c0.455,0.455,0.688,0.977,0.694,1.563l0.954-0.954c0.59-0.59,0.938-0.968,1.046-1.13
		c0.107-0.164,0.154-0.301,0.144-0.409c-0.012-0.109-0.063-0.209-0.152-0.299c-0.099-0.099-0.258-0.199-0.479-0.3l0.124-0.271
		l2.172,0.908l0.254,0.254l-5.974,5.974c-0.605,0.605-0.961,0.988-1.066,1.15s-0.153,0.3-0.144,0.415
		c0.009,0.114,0.055,0.213,0.138,0.296c0.102,0.102,0.27,0.205,0.503,0.31l-0.136,0.261l-2.171-0.897l-0.26-0.26L76.639,63.919z
		 M77.035,63.523l2.662-2.662c0.232-0.279,0.398-0.58,0.496-0.902c0.098-0.324,0.107-0.633,0.027-0.926
		c-0.078-0.293-0.206-0.528-0.383-0.705c-0.331-0.331-0.774-0.478-1.331-0.44c-0.733,0.05-1.477,0.449-2.229,1.201
		c-0.76,0.76-1.176,1.508-1.249,2.243c-0.074,0.734,0.093,1.306,0.499,1.712C75.871,63.386,76.372,63.546,77.035,63.523z"/>
	<path fill="#FFFFFF" d="M85.281,63.084l-4.151,4.151c-0.323,0.323-0.514,0.563-0.572,0.719s-0.068,0.307-0.029,0.451
		c0.04,0.146,0.182,0.34,0.427,0.585l-0.203,0.203l-2.511-2.511l0.203-0.203c0.252,0.252,0.445,0.396,0.582,0.434
		c0.136,0.038,0.284,0.026,0.448-0.036c0.163-0.062,0.405-0.253,0.725-0.572l1.991-1.991c0.561-0.561,0.906-0.939,1.038-1.14
		c0.094-0.146,0.137-0.271,0.127-0.375s-0.063-0.204-0.161-0.302c-0.105-0.105-0.262-0.205-0.469-0.299l0.124-0.282l2.189,0.926
		L85.281,63.084z M88.473,61.233l-3.609,0.281l-0.191-0.191l2.537-1.354L88.473,61.233z"/>
	<path fill="#FFFFFF" d="M85.067,72.018c-0.94-0.12-1.51-0.217-1.71-0.288c-0.297-0.109-0.56-0.278-0.789-0.508
		c-0.356-0.356-0.529-0.773-0.517-1.249c0.014-0.475,0.22-0.913,0.618-1.312c0.252-0.252,0.526-0.413,0.823-0.485
		c0.41-0.102,0.919-0.073,1.525,0.082c0.607,0.156,1.517,0.517,2.729,1.08l0.203-0.203c0.515-0.515,0.786-0.95,0.814-1.305
		c0.028-0.356-0.113-0.689-0.426-1.002c-0.236-0.236-0.489-0.36-0.756-0.373c-0.271-0.015-0.489,0.062-0.654,0.227l-0.315,0.339
		c-0.173,0.173-0.352,0.262-0.533,0.268c-0.183,0.005-0.346-0.064-0.488-0.207c-0.139-0.139-0.204-0.302-0.194-0.487
		c0.009-0.187,0.099-0.364,0.268-0.533c0.323-0.323,0.786-0.454,1.387-0.395c0.603,0.06,1.202,0.39,1.8,0.987
		c0.459,0.459,0.758,0.912,0.897,1.358c0.105,0.34,0.086,0.686-0.057,1.039c-0.094,0.229-0.391,0.594-0.891,1.094L87.047,71.9
		c-0.492,0.492-0.784,0.804-0.877,0.934c-0.092,0.129-0.135,0.234-0.13,0.315c0.006,0.08,0.037,0.15,0.093,0.206
		c0.06,0.06,0.127,0.1,0.198,0.118c0.128,0.03,0.417,0.046,0.868,0.046l-0.315,0.315c-0.985,0.144-1.67,0.021-2.053-0.361
		c-0.185-0.185-0.268-0.395-0.249-0.632S84.762,72.331,85.067,72.018z M85.433,71.652l1.969-1.969
		c-0.794-0.343-1.32-0.549-1.58-0.621c-0.462-0.132-0.848-0.172-1.155-0.118c-0.309,0.053-0.569,0.187-0.784,0.401
		c-0.271,0.271-0.415,0.575-0.432,0.916c-0.018,0.34,0.08,0.615,0.291,0.826C84.027,71.373,84.591,71.561,85.433,71.652z"/>
	<path fill="#FFFFFF" d="M95.18,72.983l-1.76,1.76l-0.187-0.187c0.41-0.695,0.603-1.255,0.578-1.678s-0.209-0.809-0.555-1.154
		c-0.264-0.264-0.546-0.405-0.847-0.429c-0.301-0.021-0.536,0.052-0.705,0.221c-0.21,0.21-0.33,0.451-0.36,0.722
		c-0.038,0.271,0.035,0.672,0.219,1.201l0.424,1.225c0.391,1.135,0.281,2.008-0.327,2.616c-0.471,0.471-1.027,0.672-1.67,0.604
		c-0.643-0.066-1.185-0.321-1.624-0.761c-0.316-0.316-0.621-0.734-0.914-1.252c-0.087-0.161-0.169-0.282-0.248-0.361
		c-0.087-0.087-0.203-0.105-0.35-0.057l-0.186-0.186l1.844-1.844l0.186,0.186c-0.421,0.632-0.616,1.229-0.586,1.793
		c0.029,0.564,0.229,1.03,0.598,1.398c0.26,0.26,0.548,0.396,0.862,0.407c0.316,0.012,0.581-0.091,0.796-0.306
		c0.259-0.259,0.387-0.568,0.381-0.928c-0.005-0.358-0.146-0.946-0.421-1.763c-0.274-0.815-0.386-1.417-0.338-1.805
		c0.045-0.383,0.231-0.739,0.559-1.066c0.425-0.425,0.927-0.634,1.503-0.628c0.577,0.005,1.097,0.239,1.56,0.702
		c0.203,0.203,0.406,0.492,0.61,0.868c0.135,0.248,0.234,0.404,0.298,0.468c0.061,0.061,0.121,0.096,0.181,0.103
		c0.061,0.008,0.158-0.012,0.293-0.057L95.18,72.983z"/>
</g>
</svg>
